<?xml version="1.0" standalone="no"?>
<!DOCTYPE svg PUBLIC "-//W3C//DTD SVG 20010904//EN"
 "http://www.w3.org/TR/2001/REC-SVG-20010904/DTD/svg10.dtd">
<svg version="1.0" xmlns="http://www.w3.org/2000/svg"
 width="150.000000pt" height="104.000000pt" viewBox="0 0 150.000000 104.000000"
 preserveAspectRatio="xMidYMid meet">

<g transform="translate(0.000000,104.000000) scale(0.100000,-0.100000)"
fill="#000000" stroke="none">
<path d="M1034 952 c8 -16 22 -34 30 -41 20 -17 21 -35 1 -27 -23 8 -18 -5 12
-36 23 -24 25 -30 13 -39 -12 -8 -9 -14 18 -38 23 -20 29 -30 20 -34 -10 -4
-11 -7 0 -18 6 -7 12 -16 12 -20 0 -11 -133 -68 -186 -79 -42 -9 -71 -7 -188
15 -75 14 -156 25 -179 25 -41 0 -41 0 -18 -16 17 -12 20 -19 11 -24 -9 -6 -5
-13 14 -25 15 -10 25 -24 22 -31 -10 -27 61 -66 151 -84 35 -7 60 -16 57 -21
-3 -5 -33 -9 -66 -9 -79 0 -139 33 -169 93 -26 50 -34 57 -76 57 -17 0 -73 11
-125 25 -112 29 -348 74 -348 67 0 -4 14 -21 32 -39 24 -25 28 -33 15 -33 -31
0 -18 -16 43 -51 38 -21 60 -41 60 -52 0 -11 20 -30 50 -49 28 -17 50 -36 50
-43 0 -6 18 -22 41 -34 46 -26 115 -32 213 -18 l59 9 -7 -29 c-21 -80 -121
-177 -206 -198 -24 -6 -25 -4 -22 37 4 55 -15 83 -50 75 -13 -4 -30 -18 -36
-32 -15 -32 -15 -35 1 -35 22 0 56 -30 51 -45 -11 -27 -44 -28 -85 0 -38 24
-39 28 -33 63 4 20 11 48 16 61 8 22 7 23 -27 17 -34 -7 -35 -6 -29 18 8 32
-9 34 -30 4 -20 -28 -21 -110 -2 -147 8 -15 32 -41 53 -57 34 -26 45 -28 118
-29 99 0 147 21 285 127 87 67 99 73 141 72 75 -1 79 -5 79 -79 0 -71 12 -105
36 -105 8 0 55 20 104 45 74 37 103 46 166 52 l75 6 -6 -24 c-8 -32 10 -79 30
-79 27 0 29 30 4 56 -24 25 -24 26 -5 40 11 8 37 14 58 14 36 0 38 -1 38 -33
0 -18 -6 -39 -12 -46 -11 -11 -7 -13 19 -9 36 5 49 -12 33 -43 -15 -26 2 -24
28 4 31 33 29 90 -4 139 -54 77 -206 88 -394 29 -52 -17 -99 -31 -104 -31 -18
0 6 71 35 102 16 18 41 57 56 86 29 60 114 141 182 174 54 26 254 46 277 27
21 -17 17 4 -8 41 -13 19 -43 46 -68 60 -25 14 -46 35 -48 46 -8 53 -16 64
-64 96 -29 19 -93 56 -141 82 -87 46 -88 46 -73 18z"/>
</g>
</svg>
